<?xml version="1.0" standalone="no"?>
<svg xmlns="http://www.w3.org/2000/svg" viewBox="0 0 199.177 29" width="199.177" height="29"><g fill="#98eb17" color="#98eb17" transform="translate(0, 0) scale(0.29)"><svg width="100.0" height="100.0" x="0.0" y="0.0" viewBox="0 0 100 100"><path d="M50,5C25.1,5,5,25.1,5,50s20.1,45,45,45s45-20.1,45-45S74.9,5,50,5z M50.9,65.6l-8.7,8.7l0,0l0,0l-8.7-8.7l0,0L18,50.2  l8.7-8.7l15.4,15.4l31.2-31.2l8.7,8.7L50.9,65.6L50.9,65.6z"></path></svg></g><line x1="41" y1="1" x2="41" y2="28" stroke="#ffffff" stroke-linecap="round"></line><path fill="#ffffff" fill-rule="nonzero" d="M6.24 17.09Q4.37 17.09 2.65 16.49Q0.94 15.89 0 14.90L0 14.90L0.70 13.54Q1.61 14.45 3.12 15.01Q4.63 15.58 6.24 15.58L6.24 15.58Q8.50 15.58 9.62 14.75Q10.75 13.92 10.75 12.60L10.75 12.60Q10.75 11.59 10.14 10.99Q9.53 10.39 8.64 10.07Q7.75 9.74 6.17 9.36L6.17 9.36Q4.27 8.88 3.14 8.44Q2.02 7.99 1.21 7.08Q0.41 6.17 0.41 4.61L0.41 4.61Q0.41 3.34 1.08 2.29Q1.75 1.25 3.14 0.62Q4.54 0 6.60 0L6.60 0Q8.04 0 9.42 0.40Q10.80 0.79 11.81 1.49L11.81 1.49L11.21 2.90Q10.15 2.21 8.95 1.86Q7.75 1.51 6.60 1.51L6.60 1.51Q4.39 1.51 3.28 2.36Q2.16 3.22 2.16 4.56L2.16 4.56Q2.16 5.57 2.77 6.18Q3.38 6.79 4.31 7.12Q5.23 7.44 6.79 7.82L6.79 7.82Q8.64 8.28 9.78 8.72Q10.92 9.17 11.71 10.07Q12.50 10.97 12.50 12.50L12.50 12.50Q12.50 13.78 11.82 14.82Q11.14 15.86 9.72 16.48Q8.30 17.09 6.24 17.09L6.24 17.09ZM21.62 14.95L22.22 16.18Q21.74 16.61 21.05 16.84Q20.35 17.06 19.58 17.06L19.58 17.06Q17.81 17.06 16.85 16.10Q15.89 15.14 15.89 13.39L15.89 13.39L15.89 1.56L17.59 1.56L17.59 4.32L21.41 4.32L21.41 5.76L17.59 5.76L17.59 13.30Q17.59 14.42 18.14 15.01Q18.70 15.60 19.75 15.60L19.75 15.60Q20.90 15.60 21.62 14.95L21.62 14.95ZM34.68 4.32L36.38 4.32L36.38 16.94L34.75 16.94L34.75 14.45Q33.98 15.72 32.72 16.39Q31.46 17.06 29.88 17.06L29.88 17.06Q28.10 17.06 26.66 16.25Q25.22 15.43 24.41 13.97Q23.59 12.50 23.59 10.63L23.59 10.63Q23.59 8.76 24.41 7.30Q25.22 5.83 26.66 5.03Q28.10 4.22 29.88 4.22L29.88 4.22Q31.42 4.22 32.65 4.86Q33.89 5.50 34.68 6.72L34.68 6.72L34.68 4.32ZM30.02 15.55Q31.34 15.55 32.41 14.94Q33.48 14.33 34.09 13.20Q34.70 12.07 34.70 10.63L34.70 10.63Q34.70 9.19 34.09 8.06Q33.48 6.94 32.41 6.32Q31.34 5.71 30.02 5.71L30.02 5.71Q28.68 5.71 27.61 6.32Q26.54 6.94 25.93 8.06Q25.32 9.19 25.32 10.63L25.32 10.63Q25.32 12.07 25.93 13.20Q26.54 14.33 27.61 14.94Q28.68 15.55 30.02 15.55L30.02 15.55ZM46.75 14.95L47.35 16.18Q46.87 16.61 46.18 16.84Q45.48 17.06 44.71 17.06L44.71 17.06Q42.94 17.06 41.98 16.10Q41.02 15.14 41.02 13.39L41.02 13.39L41.02 1.56L42.72 1.56L42.72 4.32L46.54 4.32L46.54 5.76L42.72 5.76L42.72 13.30Q42.72 14.42 43.27 15.01Q43.82 15.60 44.88 15.60L44.88 15.60Q46.03 15.60 46.75 14.95L46.75 14.95ZM60.12 4.32L61.82 4.32L61.82 16.94L60.19 16.94L60.19 14.64Q59.52 15.79 58.34 16.43Q57.17 17.06 55.66 17.06L55.66 17.06Q53.18 17.06 51.76 15.68Q50.33 14.30 50.33 11.64L50.33 11.64L50.33 4.32L52.03 4.32L52.03 11.47Q52.03 13.46 53.02 14.50Q54 15.53 55.82 15.53L55.82 15.53Q57.82 15.53 58.97 14.32Q60.12 13.10 60.12 10.94L60.12 10.94L60.12 4.32ZM69.98 17.06Q68.45 17.06 67.04 16.62Q65.64 16.18 64.85 15.50L64.85 15.50L65.62 14.16Q66.41 14.78 67.61 15.18Q68.81 15.58 70.10 15.58L70.10 15.58Q71.83 15.58 72.66 15.04Q73.49 14.50 73.49 13.51L73.49 13.51Q73.49 12.82 73.03 12.42Q72.58 12.02 71.88 11.82Q71.18 11.62 70.03 11.42L70.03 11.42Q68.50 11.14 67.56 10.84Q66.62 10.54 65.96 9.82Q65.30 9.10 65.30 7.82L65.30 7.82Q65.30 6.24 66.62 5.23Q67.94 4.22 70.30 4.22L70.30 4.22Q71.52 4.22 72.74 4.55Q73.97 4.87 74.76 5.40L74.76 5.40L74.02 6.77Q72.46 5.69 70.30 5.69L70.30 5.69Q68.66 5.69 67.84 6.26Q67.01 6.84 67.01 7.78L67.01 7.78Q67.01 8.50 67.48 8.93Q67.94 9.36 68.64 9.56Q69.34 9.77 70.56 9.98L70.56 9.98Q72.07 10.27 72.98 10.56Q73.90 10.85 74.54 11.54Q75.19 12.24 75.19 13.46L75.19 13.46Q75.19 15.12 73.81 16.09Q72.43 17.06 69.98 17.06L69.98 17.06ZM77.40 11.18L77.40 9.70L83.69 9.70L83.69 11.18L77.40 11.18ZM94.15 0.14Q97.37 0.14 99.19 1.68Q101.02 3.22 101.02 5.90L101.02 5.90Q101.02 8.59 99.19 10.12Q97.37 11.64 94.15 11.64L94.15 11.64L89.64 11.64L89.64 16.94L87.86 16.94L87.86 0.14L94.15 0.14ZM94.10 10.08Q96.60 10.08 97.92 8.99Q99.24 7.90 99.24 5.90L99.24 5.90Q99.24 3.86 97.92 2.77Q96.60 1.68 94.10 1.68L94.10 1.68L89.64 1.68L89.64 10.08L94.10 10.08ZM114.24 4.32L115.94 4.32L115.94 16.94L114.31 16.94L114.31 14.45Q113.54 15.72 112.28 16.39Q111.02 17.06 109.44 17.06L109.44 17.06Q107.66 17.06 106.22 16.25Q104.78 15.43 103.97 13.97Q103.15 12.50 103.15 10.63L103.15 10.63Q103.15 8.76 103.97 7.30Q104.78 5.83 106.22 5.03Q107.66 4.22 109.44 4.22L109.44 4.22Q110.98 4.22 112.21 4.86Q113.45 5.50 114.24 6.72L114.24 6.72L114.24 4.32ZM109.58 15.55Q110.90 15.55 111.97 14.94Q113.04 14.33 113.65 13.20Q114.26 12.07 114.26 10.63L114.26 10.63Q114.26 9.19 113.65 8.06Q113.04 6.94 111.97 6.32Q110.90 5.71 109.58 5.71L109.58 5.71Q108.24 5.71 107.17 6.32Q106.10 6.94 105.49 8.06Q104.88 9.19 104.88 10.63L104.88 10.63Q104.88 12.07 105.49 13.20Q106.10 14.33 107.17 14.94Q108.24 15.55 109.58 15.55L109.58 15.55ZM130.75 4.32L132.38 4.32L132.38 15.41Q132.38 18.62 130.81 20.17Q129.24 21.72 126.07 21.72L126.07 21.72Q124.32 21.72 122.75 21.20Q121.18 20.69 120.19 19.78L120.19 19.78L121.06 18.48Q121.97 19.30 123.28 19.75Q124.58 20.21 126.02 20.21L126.02 20.21Q128.42 20.21 129.55 19.09Q130.68 17.98 130.68 15.62L130.68 15.62L130.68 14.02Q129.89 15.22 128.60 15.84Q127.32 16.46 125.76 16.46L125.76 16.46Q123.98 16.46 122.53 15.68Q121.08 14.90 120.25 13.50Q119.42 12.10 119.42 10.32L119.42 10.32Q119.42 8.54 120.25 7.15Q121.08 5.76 122.52 4.99Q123.96 4.22 125.76 4.22L125.76 4.22Q127.37 4.22 128.66 4.87Q129.96 5.52 130.75 6.74L130.75 6.74L130.75 4.32ZM125.93 14.95Q127.30 14.95 128.40 14.36Q129.50 13.78 130.12 12.72Q130.73 11.66 130.73 10.32L130.73 10.32Q130.73 8.98 130.12 7.93Q129.50 6.89 128.41 6.30Q127.32 5.71 125.93 5.71L125.93 5.71Q124.56 5.71 123.47 6.29Q122.38 6.86 121.76 7.92Q121.15 8.98 121.15 10.32L121.15 10.32Q121.15 11.66 121.76 12.72Q122.38 13.78 123.47 14.36Q124.56 14.95 125.93 14.95L125.93 14.95ZM142.56 15.55Q143.74 15.55 144.73 15.13Q145.73 14.71 146.42 13.90L146.42 13.90L147.38 15Q146.54 16.01 145.30 16.54Q144.05 17.06 142.54 17.06L142.54 17.06Q140.59 17.06 139.08 16.24Q137.57 15.41 136.73 13.94Q135.89 12.48 135.89 10.63L135.89 10.63Q135.89 8.78 136.69 7.32Q137.50 5.86 138.91 5.04Q140.33 4.22 142.13 4.22L142.13 4.22Q143.81 4.22 145.16 4.99Q146.52 5.76 147.32 7.13Q148.13 8.50 148.18 10.25L148.18 10.25L137.81 12.26Q138.29 13.80 139.55 14.68Q140.81 15.55 142.56 15.55L142.56 15.55ZM142.13 5.69Q140.81 5.69 139.76 6.30Q138.72 6.91 138.13 8.00Q137.54 9.10 137.54 10.51L137.54 10.51Q137.54 10.87 137.57 11.04L137.57 11.04L146.47 9.31Q146.18 7.73 145.01 6.71Q143.83 5.69 142.13 5.69L142.13 5.69Z" transform="translate(51, 6.028)"></path></svg>